<svg id="Layer_1" data-name="Layer 1" xmlns="http://www.w3.org/2000/svg" viewBox="0 0 32 32"><defs><style>.insta{fill:#253746;}</style></defs><title>instagram</title><path class="insta" d="M412.2,20H387.8a3.8,3.8,0,0,0-3.8,3.8V48.2a3.8,3.8,0,0,0,3.8,3.8H412.2a3.8,3.8,0,0,0,3.8-3.8V23.8A3.8,3.8,0,0,0,412.2,20ZM408,24h3a1,1,0,0,1,1,1v3a1,1,0,0,1-1,1h-3a1,1,0,0,1-1-1V25A1,1,0,0,1,408,24Zm-8,5.9A6.14,6.14,0,1,1,393.88,36,6.15,6.15,0,0,1,400,29.9ZM412,49H388a1,1,0,0,1-1-1V33h4a6.11,6.11,0,0,0-.7,3,9.73,9.73,0,0,0,19.47,0,5.12,5.12,0,0,0-.77-3h4V48A1,1,0,0,1,412,49Z" transform="translate(-384 -20)"/></svg>
