<svg id="Layer_1" data-name="Layer 1" xmlns="http://www.w3.org/2000/svg" viewBox="0 0 76.79 23.88"><defs><style>.cls-1{fill:#231f20;}</style></defs><title>ornament</title><path class="cls-1" d="M304.48,166.44s-4,0-4,2.56c0,1.94,1.13,5.31-3.62,5.31-2.94,0-6.19-4.19-6.19-4.19s2.68,4,1.5,5.75c-1.5,2.25-2.83,2.5-26.08,2.5s-24.58-.25-26.08-2.5c-1.18-1.77,1.5-5.75,1.5-5.75s-3.25,4.19-6.19,4.19c-4.75,0-3.62-3.37-3.62-5.31,0-2.54-4-2.56-4-2.56s4,0,4-2.56c0-1.94-1.12-5.31,3.63-5.31,2.94,0,6.19,4.19,6.19,4.19s-2.68-4-1.5-5.75c1.5-2.25,2.83-2.5,26.08-2.5s24.58.25,26.08,2.5c1.18,1.77-1.5,5.75-1.5,5.75s3.25-4.19,6.19-4.19c4.75,0,3.63,3.38,3.63,5.31C300.48,166.42,304.48,166.44,304.48,166.44Z" transform="translate(-227.69 -154.5)"/></svg>