<svg id="Layer_1" data-name="Layer 1" xmlns="http://www.w3.org/2000/svg" viewBox="0 0 32 32"><title>pinterest</title><defs><style>.pinterest{fill:#253746;}</style></defs><path class="pinterest" d="M243.66,20a16,16,0,0,0-5.17,31,15.34,15.34,0,0,1,0-4.59c.26-1.25,1.71-8,1.71-8a5.77,5.77,0,0,1-.53-2.36c0-2.22,1.21-3.91,2.81-3.95a2,2,0,0,1,2.07,2.21c0,1.37-.8,3.44-1.21,5.35a2.32,2.32,0,0,0,2.43,2.84c2.84-.06,5-3.1,4.87-7.43a6.32,6.32,0,0,0-6.82-6.37,6.93,6.93,0,0,0-7.08,7.1A6.22,6.22,0,0,0,238,39.46a.48.48,0,0,1,.12.46c-.11.51-.36,1.6-.41,1.82s-.22.36-.53.23c-2-.89-3.33-3.78-3.38-6.13-.11-5,3.46-9.76,10.36-9.9,5.55-.12,9.95,3.74,10.06,9,.12,5.51-3.26,10-8.09,10.13a4.28,4.28,0,0,1-3.71-1.76l-.92,3.82a17.89,17.89,0,0,1-1.9,4.24A16,16,0,1,0,243.66,20Z" transform="translate(-228 -20)"/></svg>
