<?xml version="1.0" encoding="utf-8"?>
<!-- Generator: Adobe Illustrator 21.0.2, SVG Export Plug-In . SVG Version: 6.00 Build 0)  -->
<svg version="1.1" id="Layer_2" xmlns="http://www.w3.org/2000/svg" xmlns:xlink="http://www.w3.org/1999/xlink" x="0px" y="0px"
	 viewBox="0 0 391.7 162.8" style="enable-background:new 0 0 391.7 162.8;" xml:space="preserve">
<style type="text/css">
	.st0{fill:#404041;}
</style>
<g>
	<path class="st0" d="M2.2,162.8h21.1c0-5.7-0.2-18.8,2-28.1c2.2-9.3,15.3-26.4,28.3-7.3c0.5,0.7,1.8,0.8,2.3,0
		c14.8-19,28.1-3,30.3,8c2.3,11.2,1.8,27.4,1.8,27.4h20.7c0,0-0.2-24.2-3.9-41.4c-4-18.8-16.8-19.3-16.8-19.3H26.5
		C6.6,102.1,4.3,124.9,2.2,162.8 M102.8,83.4H7c-5.6,0-4.3,3.1,0.3,6.8c4.6,3.7,7.4,7,21.1,7h53.9c9.3,0,13.2,1,20.8-6.9
		C110.3,82.8,106.8,83.4,102.8,83.4 M47.2,58.2c0-4.6,3.8-8.4,8.4-8.4c4.6,0,8.4,3.8,8.4,8.4c0,4.6-3.8,8.4-8.4,8.4
		C51,66.6,47.2,62.9,47.2,58.2 M32.8,78.2h44.6c4.7-5.4,7.3-11.7,7.3-19.4c0-8-2.7-14.6-7.5-20.1H33.3c-4.9,5.5-7.5,11.8-7.5,19.8
		C25.8,66.3,28.1,72.8,32.8,78.2 M106,26.5c-8.2-8.1-17.9-14.3-31.6-21.3c-13.7-7-25.2-7.1-40.4,0.5C18.8,13.3,8.6,22,4.5,26.5
		c-4.3,4.7-7,7-1,7h103.1C110.3,33.6,114.2,34.7,106,26.5"/>
	<path class="st0" d="M314,131.2h-23v1.1c4.2,0,4.8,0.8,4.8,5.8v16.4c0,5-0.6,5.9-4.8,5.9v1.1h24.7l0.4-6.7H315l-0.3,1
		c-0.7,2.7-1.2,3.8-5.8,3.8h-4.3c-4.2,0-4.8-0.8-4.8-5.8v-7.4h2.5c5,0,5.8,0.6,5.8,4.8h1.1v-11.5h-1.1c0,4.2-0.8,4.8-5.8,4.8h-2.5
		v-11.4h7.5c4.6,0,5.1,1.2,5.8,3.8l0.3,1h1.1L314,131.2z M265.6,92.3l20.5,25.3h1.2V93.4c0-5,0.7-5.8,4.8-5.8v-1.1h-11.5v1.1
		c4.2,0,4.8,0.8,4.8,5.8v17.1l-19.3-24H259v1.1c4.2,0,4.8,0.8,4.8,5.8v16.4c0,5-0.6,5.9-4.8,5.9v1.1h11.5v-1.1
		c-4.2,0-4.8-0.9-4.8-5.9V92.3z M258.1,133.1h4.9c9.8,0,11.9,7.4,11.9,13.2s-2.1,13.2-11.9,13.2h-0.2c-4.1,0-4.7-0.8-4.7-5.8V133.1z
		 M262.9,131.2h-13.7v1.1c4.2,0,4.8,0.8,4.8,5.8v16.4c0,5-0.6,5.9-4.8,5.9v1.1h13.7c11.7,0,16.8-6.8,16.8-15.1
		C279.8,138,274.7,131.2,262.9,131.2 M240.7,104.4h-10.5l5.2-12.1L240.7,104.4z M240,115.7v1.1h14v-1.1c-4.2,0-4.4-0.9-6-4.4
		l-11.1-25.6h-0.7l-11.1,25.6c-1.6,3.5-1.8,4.4-6,4.4v1.1h11.8v-1.1c-4.2,0-5.1-1.1-3.9-3.8l2.4-5.6h12.2l2.4,5.6
		C245.1,114.6,244.2,115.7,240,115.7 M223.2,133.1c4.4,0,6.4,3,6.4,6.7c0,3.7-2,6.6-6.4,6.6h-4.4v-13.3H223.2z M223.3,131.2H210v1.1
		c4.2,0,4.8,0.8,4.8,5.8v16.4c0,5-0.6,5.9-4.8,5.9v1.1h13.6v-1.1c-4.2,0-4.8-0.9-4.8-5.9v-6.3h2.4l10,13.2h8.3v-1.1
		c-3-0.4-6.4-2.9-9.4-6.4l-4.9-5.8c5.7-0.6,9-4.1,9-8.5C234.1,135,230.3,131.2,223.3,131.2 M178.1,149.1l5.2-12.1l5.3,12.1H178.1z
		 M167,160.4v1.1h11.8v-1.1c-4.2,0-5.1-1.1-3.9-3.8l2.4-5.6h12.2l2.4,5.6c1.2,2.8,0.3,3.8-3.9,3.8v1.1h14v-1.1c-4.2,0-4.4-0.9-6-4.4
		l-11.1-25.6h-0.7L173.1,156C171.5,159.5,171.3,160.4,167,160.4 M128.4,146.3c0,8.8,6.9,16,15.5,16c5.2,0,7.5-2.6,13.1-2.6v-3.8
		c0-5,0.6-5.9,4.8-5.9v-1h-13.2v1c3.5,0,4.7,1.1,4.7,3.3c0,4.5-3.9,6.9-8.3,6.9c-9.3,0-11.9-7.6-11.9-13.8c0-6.2,2.9-14,11-14
		c5.6,0,9.6,4,10.9,10.5h1v-11.1h-1c-0.3,1.3-1.1,2.4-1.7,2.9c-2.6-2.7-5.8-4.3-9.4-4.3C135.4,130.3,128.4,137.5,128.4,146.3
		 M140.6,103.8v11c0,4.8-1.8,7-4.8,7c-2.6,0-3.9-1.8-3.9-3.3c0-1-0.8-1.7-1.7-1.7c-1,0-1.8,0.8-1.8,1.7c0,3.1,4.4,4.8,7.4,4.8
		c3.9,0,8.8-1.8,8.8-9v-13.6h0v-7.2c0-5,0.6-5.8,4.8-5.8v-1.1h-13.6v1.1c4.2,0,4.8,0.8,4.8,5.8L140.6,103.8L140.6,103.8z
		 M150.1,56.4c0,2.7-1.5,4.8-4.6,4.8h-3.2v-9.6h3.2C148.6,51.6,150.1,53.8,150.1,56.4 M153.4,56.4c0-3.4-2.8-6.1-7.9-6.1h-9.6V51
		c3,0,3.5,0.6,3.5,4.2V67c0,3.6-0.4,4.3-3.5,4.3V72h9.9v-0.8c-3,0-3.5-0.6-3.5-4.3v-4.5h3.3C150.6,62.5,153.4,59.7,153.4,56.4
		 M181.1,61.1c0,4.5-2.4,10.1-8.7,10.1c-6.3,0-8.7-5.6-8.7-10.1c0-4.5,2.4-10.1,8.7-10.1C178.7,51,181.1,56.6,181.1,61.1
		 M184.6,61.1c0-6.3-5.5-11.5-12.2-11.5c-6.7,0-12.2,5.2-12.2,11.5s5.5,11.5,12.2,11.5C179.1,72.7,184.6,67.5,184.6,61.1
		 M174.6,104.4h-10.5l5.2-12.1L174.6,104.4z M173.9,116.7h14v-1.1c-4.2,0-4.4-0.9-6-4.4l-11.1-25.6h-0.7L159,111.3
		c-1.6,3.5-1.8,4.4-6,4.4v1.1h11.8v-1.1c-4.2,0-5.1-1.1-3.9-3.8l2.4-5.6h12.2l2.4,5.6c1.2,2.8,0.3,3.8-3.9,3.8V116.7z M200.8,61.2
		h-3.2v-9.6h3.2c3.2,0,4.6,2.2,4.6,4.8C205.5,59,204,61.2,200.8,61.2 M206.6,72h6v-0.8c-2.2-0.3-4.6-2.1-6.8-4.6l-3.6-4.2
		c4.1-0.4,6.5-2.9,6.5-6.1c0-3.4-2.8-6.1-7.9-6.1h-9.6V51c3,0,3.5,0.6,3.5,4.2V67c0,3.6-0.4,4.3-3.5,4.3V72h9.9v-0.8
		c-3,0-3.5-0.6-3.5-4.3v-4.5h1.7L206.6,72z M212.6,95c0,3.7-2,6.6-6.4,6.6h-4.4V88.4h4.4C210.5,88.4,212.6,91.4,212.6,95 M217,95
		c0-4.7-3.8-8.5-10.8-8.5h-13.3v1.1c4.2,0,4.8,0.8,4.8,5.8v16.4c0,5-0.6,5.9-4.8,5.9v1.1h13.6v-1.1c-4.2,0-4.8-0.9-4.8-5.9v-6.3h4.5
		C213.2,103.5,217,99.7,217,95 M239.4,55.1h0.8l-0.3-4.9h-22.1l-0.3,4.9h0.8l0.2-0.7c0.5-1.9,0.9-2.8,4.2-2.8h4.8V67
		c0,3.6-0.5,4.3-3.5,4.3V72h9.9v-0.8c-3,0-3.5-0.6-3.5-4.3V51.6h4.8c3.4,0,3.7,0.8,4.2,2.8L239.4,55.1z M266.8,72l0.3-4.8h-0.8
		l-0.2,0.7c-0.5,1.9-0.9,2.8-4.2,2.8h-4.4c-3,0-3.5-0.6-3.5-4.2V55.2c0-3.6,0.4-4.2,3.5-4.2v-0.8h-9.9V51c3,0,3.5,0.6,3.5,4.2V67
		c0,3.6-0.4,4.3-3.5,4.3V72H266.8z M287.4,63.1h-7.6l3.8-8.8L287.4,63.1z M287,72h10.1v-0.8c-3,0-3.2-0.6-4.3-3.2l-8.1-18.5h-0.5
		l-8,18.5c-1.1,2.5-1.3,3.2-4.4,3.2V72h8.6v-0.8c-3,0-3.7-0.8-2.9-2.8l1.8-4h8.8l1.8,4c0.9,2,0.2,2.8-2.9,2.8V72z M323.5,86.5h-23
		v1.1c4.2,0,4.8,0.8,4.8,5.8v16.4c0,5-0.6,5.9-4.8,5.9v1.1h24.7l0.4-6.7h-1.1l-0.3,1c-0.7,2.7-1.2,3.8-5.8,3.8h-4.3
		c-4.2,0-4.8-0.8-4.8-5.8v-7.4h2.5c5,0,5.8,0.6,5.8,4.8h1.1V95h-1.1c0,4.2-0.8,4.8-5.8,4.8h-2.5V88.4h7.5c4.6,0,5.1,1.2,5.8,3.8
		l0.3,1h1.1L323.5,86.5z M327,51v-0.8h-8.3V51c3,0,3.5,0.6,3.5,4.2v12.3l-14-17.3h-5.2V51c3,0,3.5,0.6,3.5,4.2V67
		c0,3.6-0.4,4.3-3.5,4.3V72h8.3v-0.8c-3,0-3.5-0.6-3.5-4.3V54.4l14.9,18.3h0.8V55.2C323.5,51.6,324,51,327,51 M353.9,61.1
		c0,4.3-1.5,9.6-8.7,9.6h-0.1c-3,0-3.4-0.6-3.4-4.2V51.6h3.5C352.4,51.6,353.9,56.9,353.9,61.1 M357.4,61.1c0-6-3.7-10.9-12.2-10.9
		h-9.9V51c3,0,3.5,0.6,3.5,4.2V67c0,3.6-0.4,4.3-3.5,4.3V72h9.9C353.7,72,357.4,67.1,357.4,61.1 M356.6,108.5c0-2.8-1.4-5.7-5.3-7.7
		l-4.8-2.5c-4.4-2.3-6.1-3.6-6.1-6.2c0-2.5,2.1-4.5,4.9-4.5c5.8,0,7.4,4.8,7.7,8.8h1.1V85.4h-1c-0.3,1.1-0.9,1.8-1.5,2.3
		c-1.5-1.1-3.2-2.1-6.1-2.1c-4.9,0-8.4,3.3-8.4,7.5c0,3.8,2.7,6.8,5.6,8.3l4.8,2.5c3.5,1.8,5.8,3.8,5.8,6.1c0,3.2-2.7,5.5-6.3,5.5
		c-9.2,0-9.3-9.1-9.3-9.1h-1.1v11.1h1c0.3-1.1,0.9-1.9,1.5-2.4c1.6,0.4,4,2.4,7.9,2.4C352.2,117.6,356.6,114,356.6,108.5
		 M360.5,132.2v-1.1h-11.5v1.1c4.2,0,4.8,0.8,4.8,5.8v17.1l-19.3-24h-7.1v1.1c4.2,0,4.8,0.8,4.8,5.8v16.4c0,5-0.6,5.9-4.8,5.9v1.1
		h11.5v-1.1c-4.2,0-4.8-0.9-4.8-5.9v-17.5l20.5,25.3h1.2v-24.2C355.7,133.1,356.4,132.2,360.5,132.2 M391.7,110h-1.1l-0.3,1
		c-0.7,2.7-1.2,3.8-5.8,3.8h-4.3c-4.2,0-4.8-0.8-4.8-5.8v-7.4h2.5c5,0,5.8,0.6,5.8,4.8h1.1V95h-1.1c0,4.2-0.8,4.8-5.8,4.8h-2.5V88.4
		h7.5c4.6,0,5.1,1.2,5.8,3.8l0.3,1h1.1l-0.5-6.6h-23v1.1c4.2,0,4.8,0.8,4.8,5.8v16.4c0,5-0.6,5.9-4.8,5.9v1.1h24.7L391.7,110z"/>
</g>
</svg>
