<svg id="Layer_1" data-name="Layer 1" xmlns="http://www.w3.org/2000/svg" viewBox="0 0 141.94 83.34"><defs><style>.tripadvisor{fill:#253746;}</style></defs><title>tripavisor</title><circle class="tripadvisor" cx="35.23" cy="47.91" r="5.76"/><circle class="tripadvisor" cx="106.29" cy="47.84" r="5.76"/><path class="tripadvisor" d="M102.5,67.37a17.15,17.15,0,1,0,17.15,17.15A17.15,17.15,0,0,0,102.5,67.37Zm0,29a11.88,11.88,0,1,1,11.88-11.88A11.88,11.88,0,0,1,102.5,96.4ZM209.21,49.77H185.6c-12-8.1-28.49-13.17-47.35-13.17s-36.44,5.06-48.48,13.17H67.27c3.67,4.29,6.38,10.1,7.06,14.09a35.32,35.32,0,0,0,56,43,89,89,0,0,1,7.9,11.1s5.07-7.58,7.93-11.07a35.32,35.32,0,0,0,56-43C202.82,59.88,205.54,54.06,209.21,49.77ZM102.91,113A28.44,28.44,0,1,1,131.35,84.6,28.44,28.44,0,0,1,102.91,113ZM103,49.28c10.11-4.4,22.66-6.78,35.29-6.78a84.88,84.88,0,0,1,34.22,6.8,35.32,35.32,0,0,0-34.23,35.29A35.33,35.33,0,0,0,103,49.28ZM173.57,113A28.44,28.44,0,1,1,202,84.6,28.44,28.44,0,0,1,173.57,113Zm0-45.76a17.15,17.15,0,1,0,17.15,17.15A17.15,17.15,0,0,0,173.56,67.29Zm0,29a11.88,11.88,0,1,1,11.88-11.88A11.88,11.88,0,0,1,173.56,96.32Z" transform="translate(-67.27 -36.6)"/></svg>
