<svg id="Layer_1" data-name="Layer 1" xmlns="http://www.w3.org/2000/svg" viewBox="0 0 32 26.01"><title>twitter</title><defs><style>.twitter{fill:#B5BD00;}</style></defs><path class="twitter" d="M104,26.08a13.12,13.12,0,0,1-3.77,1,6.58,6.58,0,0,0,2.89-3.63,13.14,13.14,0,0,1-4.17,1.59,6.57,6.57,0,0,0-11.19,6A18.64,18.64,0,0,1,74.23,24.2a6.57,6.57,0,0,0,2,8.77,6.54,6.54,0,0,1-3-.82s0,.05,0,.08a6.57,6.57,0,0,0,5.27,6.44,6.58,6.58,0,0,1-3,.11,6.57,6.57,0,0,0,6.13,4.56,13.17,13.17,0,0,1-8.15,2.81A13.36,13.36,0,0,1,72,46.05,18.58,18.58,0,0,0,82.06,49c12.08,0,18.68-10,18.68-18.68q0-.43,0-.85A13.34,13.34,0,0,0,104,26.08Z" transform="translate(-72 -23)"/></svg>
